<svg xmlns="http://www.w3.org/2000/svg" viewBox="0 0 512 512">
  <rect width="512" height="512" rx="80" fill="#FBF5EE"/>
  
  <g fill="none" stroke="#B8956A" stroke-width="12" stroke-linecap="round" stroke-linejoin="round">
    <!-- 왼쪽 페이지 -->
    <path d="M100 160 Q100 140 120 135 Q180 120 248 130 L248 370 Q180 358 120 375 Q100 380 100 360 Z"/>
    <!-- 오른쪽 페이지 -->
    <path d="M412 160 Q412 140 392 135 Q332 120 264 130 L264 370 Q332 358 392 375 Q412 380 412 360 Z"/>
    <!-- 가운데 척추 -->
    <line x1="256" y1="128" x2="256" y2="372" stroke-width="8"/>
    <!-- 왼쪽 줄 -->
    <line x1="130" y1="178" x2="238" y2="170"/>
    <line x1="128" y1="210" x2="237" y2="202"/>
    <line x1="127" y1="242" x2="236" y2="234"/>
    <line x1="126" y1="274" x2="235" y2="266"/>
    <line x1="125" y1="306" x2="234" y2="298"/>
    <line x1="124" y1="338" x2="233" y2="330"/>
    <!-- 오른쪽 줄 -->
    <line x1="382" y1="178" x2="274" y2="170"/>
    <line x1="384" y1="210" x2="275" y2="202"/>
    <line x1="385" y1="242" x2="276" y2="234"/>
    <line x1="386" y1="274" x2="277" y2="266"/>
    <line x1="387" y1="306" x2="278" y2="298"/>
    <line x1="388" y1="338" x2="279" y2="330"/>
  </g>

  <text x="256" y="460" text-anchor="middle" font-family="Georgia, serif" font-size="42" font-weight="600" fill="#B8956A" letter-spacing="8">AGORA</text>
</svg>
